<svg width="60" height="60" xmlns="http://www.w3.org/2000/svg">

  <g>
  <title>background</title>
  <rect fill="none" id="canvas_background" height="402" width="582" y="-1" x="-1"/>
  </g>
  <g>
  <title>Layer 1</title>
  <path id="svg_1" d="m30.2,5l-0.2,0l-19.7,2.1l0,36.2l19.7,11.7l19.7,-11.7l0,-36.2l-19.5,-2.1zm17,36.8l-17.2,10.2l-17.2,-10.2l0,-14.8l17.1,10.2l0,1.8l-11.7,-7l0,1.8l11.8,7.1l0,1.9l-11.8,-7l0,1.8l11.8,7l11.9,-7.1l0,-7.6l5.3,-3.2l0,15.1zm-0.1,-17l-4.7,2.8l-2.2,1.3l-10.3,-6.1l0,1.8l8.8,5.3l-0.1,0l-0.2,0.1l-1.3,0.7l-7.3,-4.3l0,1.8l5.8,3.4l-1.4,0.9l-4.3,-2.6l0,1.8l2.9,1.7l-2.9,1.7l-17,-10.1l17,-10.2l17.2,10zm0.1,-1.8l-17.3,-10.2l-17.1,10.2l0,-13.6l17.2,-1.8l17.2,1.8l0,13.6z" fill="#d22856"/>
  </g>
</svg>
