<?xml version="1.0" encoding="UTF-8" standalone="no"?>
<!DOCTYPE svg PUBLIC "-//W3C//DTD SVG 1.1//EN" "http://www.w3.org/Graphics/SVG/1.1/DTD/svg11.dtd">
<svg version="1.1" xmlns="http://www.w3.org/2000/svg" xmlns:xlink="http://www.w3.org/1999/xlink" preserveAspectRatio="xMidYMid meet" viewBox="0 0 640 640" width="640" height="640"><defs><path d="M48 0L48 48L0 48L0 0L48 0Z" id="avO59gLaO"></path><path d="M38 30C38 20.4 38 15.07 38 14C38 11.79 36.21 10 34 10C32.93 10 27.6 10 18 10L18 14L34 14L34 30L38 30ZM14 2L10 2L10 10L2 10L2 14L10 14C10 26 10 32.67 10 34C10 36.21 11.79 38 14 38C15.33 38 22 38 34 38L34 46L38 46L38 38L46 38L46 34L14 34L14 2Z" id="d1KOd3ruxL"></path></defs><g><g><g><use xlink:href="#avO59gLaO" opacity="1" fill="#000000" fill-opacity="0"></use><g><use xlink:href="#avO59gLaO" opacity="1" fill-opacity="0" stroke="#000000" stroke-width="1" stroke-opacity="0"></use></g></g><g><use xlink:href="#d1KOd3ruxL" opacity="1" fill="#d33456" fill-opacity="1"></use><g><use xlink:href="#d1KOd3ruxL" opacity="1" fill-opacity="0" stroke="#000000" stroke-width="1" stroke-opacity="0"></use></g></g></g></g></svg>