<?xml version="1.0" encoding="UTF-8" standalone="no"?>
<!DOCTYPE svg PUBLIC "-//W3C//DTD SVG 1.1//EN" "http://www.w3.org/Graphics/SVG/1.1/DTD/svg11.dtd">
<svg version="1.1" xmlns="http://www.w3.org/2000/svg" xmlns:xlink="http://www.w3.org/1999/xlink" preserveAspectRatio="xMidYMid meet" viewBox="0 0 640 640" width="640" height="640"><defs><path d="M48 0L48 48L0 48L0 0L48 0Z" id="bAr6kNNAX"></path><path d="M48 0L48 48L0 48L0 0L48 0Z" id="cEn9FKNrZ"></path><path d="M15.5 3.88C21.9 3.88 27.12 9.1 27.12 15.5C27.12 21.9 21.9 27.12 15.5 27.12C9.1 27.12 3.88 21.9 3.88 15.5C3.88 9.1 9.1 3.88 15.5 3.88M0 15.5C0 24.06 6.94 31 15.5 31C24.06 31 31 24.06 31 15.5C31 6.94 24.06 0 15.5 0C15.5 0 15.5 0 15.5 0C5.17 4.63 0 9.79 0 15.5Z" id="fAjRcT1tD"></path><path d="M15.5 23.59C20.07 23.59 23.77 19.89 23.77 15.32C23.77 10.75 20.07 7.04 15.5 7.04" id="c13TWZFzDQ"></path></defs><g><g><g><use xlink:href="#bAr6kNNAX" opacity="1" fill="#000000" fill-opacity="0"></use><g><use xlink:href="#bAr6kNNAX" opacity="1" fill-opacity="0" stroke="#000000" stroke-width="1" stroke-opacity="0"></use></g></g><g><use xlink:href="#cEn9FKNrZ" opacity="1" fill="#000000" fill-opacity="0"></use><g><use xlink:href="#cEn9FKNrZ" opacity="1" fill-opacity="0" stroke="#000000" stroke-width="1" stroke-opacity="0"></use></g></g><g><use xlink:href="#fAjRcT1tD" opacity="1" fill="#d33456" fill-opacity="1"></use><g><use xlink:href="#fAjRcT1tD" opacity="1" fill-opacity="0" stroke="#000000" stroke-width="1" stroke-opacity="0"></use></g></g><g><use xlink:href="#c13TWZFzDQ" opacity="1" fill="#d33456" fill-opacity="1"></use><g><use xlink:href="#c13TWZFzDQ" opacity="1" fill-opacity="0" stroke="#000000" stroke-width="1" stroke-opacity="0"></use></g></g></g></g></svg>
