<?xml version="1.0" encoding="UTF-8" standalone="no"?>
<!DOCTYPE svg PUBLIC "-//W3C//DTD SVG 1.1//EN" "http://www.w3.org/Graphics/SVG/1.1/DTD/svg11.dtd">
<svg version="1.1" xmlns="http://www.w3.org/2000/svg" xmlns:xlink="http://www.w3.org/1999/xlink" preserveAspectRatio="xMidYMid meet" viewBox="0 0 640 640" width="640" height="640"><defs><path d="M48 0L48 48L0 48L0 0L48 0Z" id="avO59gLaO"></path><path d="M48 0L48 48L0 48L0 0L48 0Z" id="dahXLPbTb"></path><path d="M15.24 0L12.41 2.83L17.17 7.59C11 13.76 7.57 17.19 6.88 17.88C5.71 19.05 5.71 20.95 6.88 22.12C7.98 23.22 16.78 32.02 17.88 33.12C18.46 33.71 19.23 34 20 34C20.77 34 21.54 33.71 22.12 33.12C23.22 32.02 32.02 23.22 33.12 22.12C34.29 20.95 34.29 19.05 33.12 17.88C30.74 15.5 24.78 9.54 15.24 0ZM20 10.42L29.59 20L10.41 20L20 10.42ZM34 30C34 32.21 35.79 34 38 34C40.21 34 42 32.21 42 30C42 27.33 38 23 38 23C37.2 24.4 34 27.33 34 30Z" id="b1mzxVziKL"></path><path d="M48 40C48 40 48 40 48 40C48 41.8 48 42.8 48 43C48 43 48 43 48 43C19.2 43 3.2 43 0 43C0 43 0 43 0 43C0 41.2 0 40.2 0 40C0 40 0 40 0 40C28.8 40 44.8 40 48 40Z" id="b8AF4YlsmN"></path></defs><g><g><g><use xlink:href="#avO59gLaO" opacity="1" fill="#000000" fill-opacity="0"></use><g><use xlink:href="#avO59gLaO" opacity="1" fill-opacity="0" stroke="#000000" stroke-width="1" stroke-opacity="0"></use></g></g><g><use xlink:href="#dahXLPbTb" opacity="1" fill="#000000" fill-opacity="0"></use><g><use xlink:href="#dahXLPbTb" opacity="1" fill-opacity="0" stroke="#000000" stroke-width="1" stroke-opacity="0"></use></g></g><g><use xlink:href="#b1mzxVziKL" opacity="1" fill="#d33456" fill-opacity="1"></use><g><use xlink:href="#b1mzxVziKL" opacity="1" fill-opacity="0" stroke="#000000" stroke-width="1" stroke-opacity="0"></use></g></g><g><use xlink:href="#b8AF4YlsmN" opacity="1" fill="#d33456" fill-opacity="1"></use><g><use xlink:href="#b8AF4YlsmN" opacity="1" fill-opacity="0" stroke="#000000" stroke-width="1" stroke-opacity="0"></use></g></g></g></g></svg>