<?xml version="1.0" encoding="UTF-8" standalone="no"?>
<!DOCTYPE svg PUBLIC "-//W3C//DTD SVG 1.1//EN" "http://www.w3.org/Graphics/SVG/1.1/DTD/svg11.dtd">
<svg version="1.1" xmlns="http://www.w3.org/2000/svg" xmlns:xlink="http://www.w3.org/1999/xlink" preserveAspectRatio="xMidYMid meet" viewBox="0 0 640 640" width="640" height="640"><defs><path d="M19.35 0.5C18.48 1.36 14.17 5.68 6.39 13.45C3.55 10.6 1.97 9.02 1.65 8.71C1.27 8.33 0.66 8.33 0.28 8.71C-0.09 9.09 -0.09 9.7 0.28 10.08C0.83 10.62 5.17 14.96 5.71 15.5C5.9 15.69 6.15 15.79 6.39 15.79C6.64 15.79 6.89 15.69 7.08 15.5C8.44 14.15 19.35 3.31 20.72 1.95C21.09 1.49 21.09 0.87 20.72 0.5C20.34 0.12 19.73 0.12 19.35 0.5Z" id="a2Atm6nUhw"></path></defs><g><g><g><use xlink:href="#a2Atm6nUhw" opacity="1" fill="#d22856" fill-opacity="1"></use><g><use xlink:href="#a2Atm6nUhw" opacity="1" fill-opacity="0" stroke="#000000" stroke-width="1" stroke-opacity="0"></use></g></g></g></g></svg>
