<svg width="74.426" height="22.859" xmlns="http://www.w3.org/2000/svg">
  <g>
  <title>background</title>
  <rect fill="none" id="canvas_background" height="402" width="582" y="-1" x="-1"/>
  </g>
  <g>
  <title>Layer 1</title>
  <g id="svg_1">
    <path id="svg_2" d="m0,1.449c0,-0.708 0.58,-1.288 1.256,-1.288l7.18,0c5.087,0 8.436,2.704 8.436,7.147l0,0.064c0,4.861 -4.057,7.373 -8.854,7.373l-5.474,0l0,6.825c0,0.708 -0.58,1.288 -1.288,1.288c-0.676,0.001 -1.256,-0.579 -1.256,-1.287l0,-20.122zm8.114,10.979c3.734,0 6.182,-1.996 6.182,-4.958l0,-0.065c0,-3.22 -2.415,-4.894 -6.054,-4.894l-5.698,0l0,9.917l5.57,0z" fill="#d22856"/>
    <path id="svg_3" d="m21.729,1.288c0,-0.708 0.579,-1.288 1.254,-1.288c0.709,0 1.288,0.58 1.288,1.288l0,20.283c0,0.708 -0.579,1.288 -1.288,1.288c-0.676,0 -1.255,-0.58 -1.255,-1.288l0,-20.283l0.001,0z" fill="#d22856"/>
    <path id="svg_4" d="m30.87,1.32c0,-0.676 0.579,-1.256 1.256,-1.256l0.354,0c0.58,0 0.934,0.29 1.288,0.74l13.684,17.45l0,-16.998c-0.001,-0.676 0.546,-1.256 1.255,-1.256c0.676,0 1.223,0.58 1.223,1.256l0,20.348c0,0.676 -0.482,1.191 -1.158,1.191l-0.129,0c-0.548,0 -0.934,-0.322 -1.32,-0.772l-13.974,-17.87l0,17.45c0,0.676 -0.547,1.256 -1.255,1.256c-0.677,0 -1.224,-0.58 -1.224,-1.256l0,-20.283z" fill="#d22856"/>
    <path id="svg_5" d="m56.3,1.288c0,-0.708 0.579,-1.288 1.256,-1.288c0.708,0 1.287,0.58 1.287,1.288l0,12.331l12.846,-13.168c0.29,-0.258 0.58,-0.451 0.999,-0.451c0.676,0 1.224,0.612 1.224,1.256c0,0.354 -0.161,0.644 -0.419,0.901l-7.984,7.92l8.564,10.561c0.225,0.29 0.354,0.547 0.354,0.934c0,0.676 -0.579,1.288 -1.287,1.288c-0.483,0 -0.806,-0.258 -1.03,-0.58l-8.403,-10.463l-4.862,4.861l0,4.894c0,0.708 -0.579,1.288 -1.287,1.288c-0.677,0 -1.256,-0.58 -1.256,-1.288l0,-20.284l-0.002,0z" fill="#d22856"/>
  </g>
  </g>
</svg>
