<svg width="26.943" height="34.09" xmlns="http://www.w3.org/2000/svg">

  <g>
  <title>background</title>
  <rect fill="none" id="canvas_background" height="402" width="582" y="-1" x="-1"/>
  </g>
  <g>
  <title>Layer 1</title>
  <path fill="#d22856" id="svg_1" d="m13.62,0.017l-0.148,-0.017l-13.472,1.412l0,24.661l13.472,8.017l13.43,-7.99l0.042,-0.026l0,-24.662l-13.324,-1.395zm11.399,12.11l-11.524,-6.793l-0.001,-0.104l-0.087,0.05l-0.088,-0.056l0,0.109l-11.394,6.785l0,-8.971l11.547,-1.212l11.547,1.212l0,8.98zm-11.614,-5.34l11.518,6.713l-4.479,2.64l-7.093,-4.221l-0.013,1.415l5.904,3.513l-0.86,0.507l-5.031,-2.992l-0.013,1.415l3.827,2.275l-0.782,0.523l-3.032,-1.787l-0.013,1.413l1.852,1.091l-1.8,1.081l-11.356,-6.751l11.371,-6.835zm-11.48,8.34l11.411,6.791l0.015,1.044l-7.941,-4.728l-0.015,1.416l7.979,4.796l0.017,1.076l-7.972,-4.741l-0.013,1.415l8.021,4.821l0.045,0.026l8.143,-4.872l0,-1.268l-0.011,-0.148l0,-3.761l3.415,-2.036l0,10.02l-11.547,6.872l-11.547,-6.871l0,-9.852z"/>
  </g>
</svg>
