<svg width="146.3" height="40.375" xmlns="http://www.w3.org/2000/svg">

  <g>
  <title>background</title>
  <rect fill="none" id="canvas_background" height="402" width="582" y="-1" x="-1"/>
  </g>
  <g>
  <title>Layer 1</title>
  <g id="svg_1">
    <path id="svg_2" d="m71.874,18.661c0,-0.708 0.58,-1.288 1.256,-1.288l7.18,0c5.087,0 8.436,2.704 8.436,7.146l0,0.063c0,4.86 -4.057,7.373 -8.854,7.373l-5.475,0l0,6.825c0,0.708 -0.58,1.287 -1.289,1.287c-0.676,0 -1.256,-0.58 -1.256,-1.287l0.002,-20.119l0,0zm8.114,10.98c3.734,0 6.182,-1.996 6.182,-4.959l0,-0.062c0,-3.221 -2.414,-4.894 -6.053,-4.894l-5.699,0l0,9.917l5.57,0l0,-0.002z" fill="#d22856"/>
    <path id="svg_3" d="m93.603,18.5c0,-0.708 0.579,-1.288 1.255,-1.288c0.709,0 1.288,0.58 1.288,1.288l0,20.283c0,0.708 -0.579,1.287 -1.288,1.287c-0.676,0 -1.255,-0.579 -1.255,-1.287l0,-20.283z" fill="#d22856"/>
    <path id="svg_4" d="m102.744,18.532c0,-0.676 0.58,-1.256 1.256,-1.256l0.354,0c0.58,0 0.935,0.29 1.288,0.74l13.684,17.45l0,-16.998c0,-0.676 0.547,-1.256 1.256,-1.256c0.676,0 1.225,0.58 1.225,1.256l0,20.349c0,0.677 -0.48,1.19 -1.158,1.19l-0.129,0c-0.548,0 -0.936,-0.321 -1.318,-0.772l-13.976,-17.867l0,17.449c0,0.677 -0.547,1.257 -1.257,1.257c-0.676,0 -1.223,-0.58 -1.223,-1.257l0,-20.285l-0.002,0z" fill="#d22856"/>
    <path id="svg_5" d="m128.173,18.5c0,-0.708 0.58,-1.288 1.257,-1.288c0.708,0 1.286,0.58 1.286,1.288l0,12.331l12.848,-13.16c0.29,-0.257 0.579,-0.451 0.998,-0.451c0.676,0 1.225,0.612 1.225,1.256c0,0.354 -0.162,0.644 -0.42,0.901l-7.984,7.92l8.564,10.561c0.225,0.291 0.354,0.547 0.354,0.936c0,0.676 -0.577,1.288 -1.285,1.288c-0.482,0 -0.807,-0.259 -1.03,-0.58l-8.401,-10.464l-4.863,4.861l0,4.895c0,0.708 -0.578,1.288 -1.286,1.288c-0.677,0 -1.257,-0.58 -1.257,-1.288l0,-20.294l-0.006,0z" fill="#d22856"/>
  </g>
  <path id="svg_6" d="m60.498,28.266" fill="#FFFFFF"/>
  <path id="svg_7" d="m60.462,28.016c-0.002,-0.009 -5.175,-21.365 -5.175,-21.365c-0.361,-2.348 -2.593,-6.651 -8.599,-6.651c-0.829,0 -1.5,0.671 -1.5,1.5s0.671,1.5 1.5,1.5c4.856,0 5.575,3.729 5.639,4.143l4.767,19.701l-2.073,0c-0.742,-5.927 -5.802,-10.531 -11.927,-10.531s-11.186,4.604 -11.927,10.531l-1.82,0c-0.741,-5.927 -5.802,-10.531 -11.927,-10.531s-11.185,4.604 -11.927,10.531l-2.073,0l4.767,-19.701c0.063,-0.414 0.783,-4.143 5.639,-4.143c0.829,0 1.5,-0.671 1.5,-1.5s-0.671,-1.5 -1.5,-1.5c-6.006,0 -8.238,4.303 -8.599,6.651c0,0 -5.173,21.356 -5.175,21.365c-0.266,1.109 0.531,1.826 1.426,1.826c0.012,0 0.023,0.004 0.036,0.004l3.982,0c0.741,5.926 5.802,10.53 11.927,10.53s11.185,-4.604 11.927,-10.53l1.814,0c0.742,5.926 5.802,10.53 11.927,10.53s11.186,-4.604 11.927,-10.53l3.982,0c0.012,0 0.023,-0.004 0.036,-0.004c0.895,0 1.692,-0.717 1.426,-1.826zm-34.147,1.828c-0.715,4.272 -4.421,7.531 -8.896,7.531s-8.18,-3.259 -8.896,-7.531c-0.082,-0.488 -0.135,-0.988 -0.135,-1.5s0.053,-1.011 0.135,-1.5c0.715,-4.271 4.421,-7.531 8.896,-7.531s8.18,3.26 8.896,7.531c0.082,0.489 0.135,0.988 0.135,1.5s-0.053,1.011 -0.135,1.5zm25.675,0c-0.716,4.272 -4.421,7.531 -8.896,7.531c-4.475,0 -8.181,-3.259 -8.896,-7.531c-0.082,-0.488 -0.135,-0.988 -0.135,-1.5s0.053,-1.011 0.135,-1.5c0.716,-4.271 4.421,-7.531 8.896,-7.531c4.475,0 8.181,3.26 8.896,7.531c0.082,0.489 0.135,0.988 0.135,1.5s-0.053,1.011 -0.135,1.5z" fill="#D22856"/>
  </g>
</svg>
